<?xml version="1.0" encoding="utf-8"?>
<!-- Generator: Adobe Illustrator 16.0.4, SVG Export Plug-In . SVG Version: 6.00 Build 0)  -->
<!DOCTYPE svg PUBLIC "-//W3C//DTD SVG 1.1//EN" "http://www.w3.org/Graphics/SVG/1.1/DTD/svg11.dtd">
<svg version="1.1" xmlns="http://www.w3.org/2000/svg" xmlns:xlink="http://www.w3.org/1999/xlink" x="0px" y="0px" width="266px"
	 height="294px" viewBox="0 0 266 294" enable-background="new 0 0 266 294" xml:space="preserve">
<g id="achtergrond_266_x__x_294">
	<rect y="0" fill="#B8DBFF" width="266" height="294"/>
</g>
<g id="buitenland">
	<path fill="#CFE2A9" d="M235.654,1.941c-1.096,1.211-1.039,1.926,0.774,3.407c1.815,1.481,1.322,2.142,0.556,2.803
		c-0.771,0.662-1.264,0.993-1.923,0.5c-0.66-0.495-1.755,1.266-2.74,2.478c-0.987,1.211-0.764,2.42-0.981,3.74
		c-0.217,1.32-0.543,3.85-0.486,4.4c0.056,0.548,0.221,1.318,0.057,1.648c-0.163,0.33-0.053,0.659,0.168,1.099
		c0.221,0.439,0,0.934-0.547,1.65c-0.547,0.715-0.271,1.484,0.442,2.583c0.718,1.099,0.99,1.209,1.595,1.042
		c0.604-0.166,0.604-0.275,1.319,0.108c0.715,0.383,1.702-0.002,2.471-0.06c4.119-0.301,7.068-0.075,8.071,0.042
		c1.002,0.115,0.771,1.3,0.771,1.3s-1.064,3.854-0.845,4.623c0.216,0.765-0.014,2.077-0.356,2.843
		c-0.34,0.762-1.126,1.415-1.126,1.415v0.109l-50.077,65.2l-70.604,93.841l-42.584,4.853l-9.244,14.488l-6.734,6.411l-1.023,2.619
		l-17.213,6.339l-3.017-0.867l-32.606-10.09l-3.838,1.93L0,223.548V294h266V0h-28.764C236.84,0.571,236.316,1.211,235.654,1.941z"/>
</g>
<g id="_x2D_------_2_">
</g>
<g id="NL_land_1_">
	<path fill="#FFFFFF" d="M149.686,15.803c1.513,0.478,9.414-0.002,11.525-0.749c2.104-0.748,5.84-0.172,6.772,0.138
		c0.929,0.31,1.32,0.277,1.245,0.827c-0.073,0.549-2.025,1.074-3.014,0.798c-0.986-0.275-2.6-0.077-3.51,0.385
		c-0.911,0.462-5.617,1.051-6.523,0.776c-0.9-0.275-2.516,0.087-3.09,0.55c-0.578,0.464-3.527,0.984-4.431,0.38
		c-0.901-0.602-1.84-1.462-1.071-2.3C148.361,15.77,148.174,15.325,149.686,15.803z"/>
	<path fill="#FFFFFF" d="M183.03,11.263c1.353-0.261,2.998-0.612,3.846-0.546c0.849,0.062,5.351-1.029,5.527-0.233
		c0.175,0.797-1.231,1.154-1.974,1.127c-0.736-0.03-1.992,0.533-2.734,1.157c-0.74,0.626-3.949,1.885-4.854,1.607
		c-0.902-0.273-3.084,0.415-2.992,0.964c0.096,0.55-1.923,1.832-2.01,0.638c-0.221-2.973,0.962-4.364,2.287-4.324
		C181.877,11.708,181.678,11.522,183.03,11.263z"/>
	<path fill="#FFFFFF" d="M120.125,127.48l-1.24-1.566l-0.234-2.869c-0.372-0.375-0.701-1.103,0.346-1.634
		c1.049-0.529,14.674-8.334,14.674-8.334l0.43-0.978c0,0,2.977-2.231,3.02-2.193c0.041,0.039,0.176-1.472,0.176-1.472l1.771-2.282
		l1.501,0.093l4.034-3.576c0,0,2.639-0.838,3.602-1.04c0.965-0.2,1.208-0.275,2.248,0.591c1.039,0.862,5.961,1.559,7.09,1.521
		c1.13-0.039,1.965-0.598,2.503,0.506c0.536,1.106,1.53,2.187,1.818,2.798c0.288,0.611,0.698,1.36,0.399,2.378
		c-0.298,1.015-1.761,6.821-5.623,10.07c0,0-2.678-0.011-2.717-0.055c-0.041-0.044-6.887,5.029-6.887,5.029l-1.834-0.093
		l-1.178,1.466l0.451,2.403l-1.452,4.741l-6.614,2.41l-5.729-4.951l-7.712-3.683L120.125,127.48z"/>
	<path fill="#FFFFFF" d="M67.248,185.481c0.826,1.135,1.079,0.78,2.25,1.094c1.164,0.321,3.332,1.026,2.423-0.144
		c-0.915-1.171-1.665-1.059-2.831-1.33C67.918,184.831,66.422,184.348,67.248,185.481z"/>
	<path fill="#FFFFFF" d="M68.317,187.879c-1.42-0.19-1.749-0.73-2.163-1.487c-0.411-0.759-0.83-0.638-1.496-0.744
		c-0.666-0.104-1.082-0.563-1.246-1.237c-0.161-0.67-0.824-1.05-1.742-1.405c-0.917-0.348-5.999-2.149-6.914-2.5
		c-0.918-0.353-3.911-2.553-3.987-3.717c-0.076-1.164-0.907-1.627-2.077-1.324c-1.174,0.302-6.025,1.614-6.863,2.245
		c-0.846,0.632-1.266,1.4-0.521,2.29c0.747,0.89,1.244,1.502,1.75,0.749c0.506-0.751,1.262-1.32,4.768-1.13
		c1.92,0.102,4.255,1.212,3.828,2.912c-0.432,1.698-0.183,2.064,0.396,2.458c0.586,0.396,0.911,1.251,0.825,2.136
		c-0.094,0.879-0.354,2.144,1.82,2.223c2.169,0.079,4.837,0.707,5.168,1.344c0.327,0.642,0.827,1.335,1.912,1.407
		c1.084,0.072,1.75,0.522,2.244,1.161c0.496,0.642,4.584,1.271,6.094,0.364c1.51-0.905,3.102-1.354,1.862-2.771
		C70.728,189.435,69.736,188.069,68.317,187.879z"/>
	<path fill="#FFFFFF" d="M49.77,188.661c-1.084-0.437-1.411-0.811-1.33-1.486c0.09-0.67-2.402-1.677-3.339-1.83
		c-2.253-0.368-5.327-0.344-6.077-0.53c-0.755-0.184-5.357,0.717-6.025,0.612c-0.67-0.105-2.594,0.823-2.605,2.033
		c-0.008,1.211-0.26,1.737-0.514,2.127c-0.254,0.391,0.746,3.174,3.323,2.711c1.759-0.316,2.515-0.852,3.021-1.518
		c0.506-0.669,3.182-1.19,3.344-0.14c0.156,1.046,0.658,1.413,1.49,1.319c0.835-0.094,1.583,1.091,1.661,1.975
		c0.073,0.885,0.151,2.338,2.155,2.064c1.254-0.174,1.67,0.108,2.079,0.913c0.411,0.808,2.165,1.427,3.254,0.76
		c1.087-0.666,1.593-0.626,2.177-0.639c0.584-0.015,2.6-1.358,3.02-1.783c0.418-0.423,1.102-1.94-0.564-2.869
		c-1.668-0.93-1.916-0.817-2.416-0.755c-0.501,0.063-1.082-0.478-1.33-1.152C50.846,189.796,50.853,189.094,49.77,188.661z"/>
	<path fill="#FFFFFF" d="M32.734,199.679c-0.665-0.51-1.497-0.975-2.752-0.43c-1.26,0.55-2.178,0.74-0.934,1.879
		s2.314,3.474,3.572,2.563c1.258-0.911,3.022-1.602,3.934-1.039c0.914,0.562,1.168,0.599,1.918,0.257
		c0.756-0.337,1.258-0.462,1.922-0.069c0.664,0.397,1.503,0.274,2.09,0.017c0.586-0.26,0.52-0.531,0.098-1.963
		c-0.653-2.235-3.738-3.123-6.502-2.012C33.315,199.992,33.397,200.193,32.734,199.679z"/>
	<path fill="#FFFFFF" d="M63.508,221.747l0.117-0.01c0.584-0.055,3.249-0.302,4.344-0.386c1.234-0.09,1.807,0.432,2.273,0.977
		c0.471,0.54,2.785,0.969,3.912,0.449c1.129-0.516,1.275-1.381,0.34-2.338c-0.932-0.961-1.75-3.425-1.598-4.275
		c0.148-0.845,0.512-0.961,0.226-1.597c-0.28-0.637-0.241-1.179,1.32-1.484c1.56-0.301,5.076-1.037,5.987-1.341
		c0.907-0.309,1.807-0.207,2.168,0.546c0.357,0.751,0.279,1.382-0.34,1.808c-0.617,0.43-0.713,3.401,0.527,2.352
		c1.24-1.052,1.596-0.421,3.373-0.193c1.773,0.234,4.086,0.876,4.24-0.717c0.159-1.59,0.844-1.598,1.756-2.009
		c0.908-0.419,1.82-1.274,2.516-2.437c0.695-1.163,1.609-2.551,4.352-0.717c2.745,1.837,2.333,3.207,1.497,3.635
		c-0.833,0.424-0.694,0.736-0.772,1.593c-0.078,0.856-0.805,0.951-1.852,0.733c-1.049-0.216-1.453,0.306-1.312,1.271
		c0.139,0.964,0.822,1.386,2.381,0.974c1.562-0.408,5.411-1.353,5.871,0.147c0.463,1.498,2.459,0.651,3.159-0.619
		c0.7-1.268,1.603-2.341,2.407-2.753c0.805-0.412,1.164-1.062,0.881-1.595c-0.285-0.53-0.357-0.964,0.557-1.806
		c0.914-0.84,1.38-0.635,1.734,0.226c0.361,0.859,0.496,1.275,1.297,1.074c0.803-0.203,1.479,0.646,1.834,2.039
		c0.355,1.391,0.6,2.449-0.131,3.407s-1.568,1.05,0.736,3.416c2.301,2.365,1.434,1.785,1.461,3.39
		c0.027,1.603,0.369,3.941,2.591,2.468c2.224-1.474,2.362-1.266,3.049-0.727c0.688,0.544,1.474,1.283,1.178,2.78
		c-0.296,1.494-1.303,2.647,2.151,2.678c1.47,0.014,4.094-0.19,4.359-1.249c0.264-1.059,0.863-0.18,2.416,1.006
		c1.553,1.188,2.562,0.653,3.373-0.296c0.805-0.949,2.904-3.057,4.363-2.208c2.959,1.731,3.605,2.375,3.223,5.03
		c-0.291,2.017-0.275,2.551,1.068,2.778c1.34,0.227,4.297,1.303,4.98,2.591c0.682,1.289,1.148,1.175,2.383,1.191
		c1.236,0.011,4.742-0.509,4.99,0.882c0.252,1.395,1.361,1.709,2.275,0.87c0.918-0.84,2.028-0.201,2.926,1.511
		c-1.264,0.781-2.941,2.36-2.433,3.078c0.681,0.974,0.468,1.66-0.181,1.803c-0.646,0.141-1.193,0.336-0.68,1.469
		s0.133,1.982-0.844,1.795c-0.982-0.188-1.697,0.494-1.521,1.793c0.182,1.297-0.043,3.203-1.365,4.161
		c-1.322,0.956-1.879,2.788-0.691,3.269c1.19,0.482,1.305,1.338,0.648,2.463c-0.236,0.409-0.396,0.979-0.5,1.589
		c-0.623,1.176-1.221,0.896-1.834,1.324s-0.918,0.733-0.883,1.485c0.037,0.756-0.591,1.27-1.424,1.48
		c-0.826,0.218-1.568,1.051-1.209,2.338c0.357,1.289,0.698,2.663,1.609,3.1c0.906,0.441,1.248,1.389,1.176,2.355
		c-0.231,0.949-0.31,1.609-0.389,2.188c-0.031,0.23-0.005,0.845-0.178,1.644c1.013,0.119,3.863,0.766,4.24-0.934
		c0.382-1.689,1.383-1.379,2.068-0.195c0.686,1.182,3.426,1.399,4.558,0.883c1.134-0.52,1.05-0.532,1.739,0.119
		c0.688,0.648,1.041,0.532,2.173,0.229c1.13-0.306,2.244-0.631,3.588-0.084c1.34,0.547,2.021,0.433,2.72-0.406
		c0.695-0.842,0.078-1.605-1.178-2.248c-1.26-0.641-2.209-1.191-1.51-1.927c0.698-0.735,0.979-0.312,1.67,0.229
		c0.688,0.543,1.336-0.75,0.951-1.918c-0.387-1.168-0.672-2.996,1.651-3.397c2.327-0.405,3.123-1.372,2.302-2.222
		c-0.822-0.852-0.898-2.146-0.09-2.771c0.807-0.627,0.95-1.814-1.289-2.035c-2.24-0.225-2.533-1.195-2.704-1.936
		c-0.173-0.738-0.354-1.822,0.235-2.343c0.586-0.522,0.976-2.452-1.732-1.291c-1.486,0.635-2.002,0.726-2.172,0.09
		c-0.174-0.634-1.45-0.548-2.067,0.202c-0.615,0.748-1.891-0.021-1.296-0.969c0.59-0.945,0.508-0.967-0.424-1.71
		c-0.934-0.745-0.904-1.189-1.074-2.032c-0.17-0.85-0.246-1.607,0.885-2.02s1.386-1.914,1.738,0.44
		c0.349,2.352,2.881,1.61,2.932,0.335c0.049-1.268,0.852-3.408,2.635-4.031c1.785-0.617,2.796-1.477,3.389-2.318
		c0.591-0.843,1.061-2.094,3.278-2.603c2.218-0.511,4.532-1.296,3.276-2.256c-1.258-0.959-0.902-1.186-0.098-1.49
		c0.805-0.312,0.943-0.747,0.553-1.276c-0.389-0.527-0.902-1.185-1.955-0.228c-1.053,0.96-3.541,3.061-3.918,1.038
		c-0.382-2.019-0.981-5.552,0.371-6.601c1.35-1.053,2.953-2.75,3.334-4.661c0.383-1.91,1.627-3.214,3.033-4.141
		c2.555-1.683,2.584-2.548,1.783-6.064c-0.803-3.512-0.553-4.375,0.041-5.966c0.596-1.586-0.002-5.436-1.362-6.614
		c-1.369-1.176-1.663-1.613-1.616-2.355c0.047-0.742-2.306-2.684-3.018-3.644c-0.713-0.958-3.428-2.227-1.634-4.02
		c1.793-1.798,1.283-2.872-1.392-3.207c-2.67-0.337-3.143-1.087-2.766-2.47c0.378-1.377,1.133-2.661-0.666-3.629
		c-1.799-0.967-5.469-1.105-3.351-2.582c2.114-1.47,1.826-2.971,0.144-5.004c-1.686-2.033,0.225-2.494,1.891-2.051
		c1.671,0.442,1.988-1.728,2.904-2.464c0.916-0.734,1.172-1.66,3.596-0.041c2.42,1.619,3.01,0.258,2.734-1.124
		c-0.275-1.385-1.386-2.65-2.32-2.972c-0.936-0.324-3.29-1.415,0.012-1.707c3.305-0.291,2.891,0.337,3.033,1.408
		c0.145,1.071,2.496,3.023,4.941,1.873c2.44-1.15,3.468,2.441,4.381,2.346c0.908-0.097,1.688,0.541,2.596,1.296
		c0.906,0.756,3.207,1.51,1.969-1.587c-1.242-3.093-0.674-2.99,2.075-1.584c2.751,1.407,2.673,0.445,3.261-0.191
		c0.591-0.627,1.824-2.119,3.385-1.894c1.563,0.229,3.225-0.727,5.121-1.777c1.899-1.046,3.012-1.793,3.809-0.825
		c0.799,0.968,2.034,1.446,2.734,0.813c0.697-0.629,3.546-3.332,3.597-4.288c0.047-0.955,0.078-1.708,0.88-1.806
		c0.807-0.095,2.231-2.11,0.568-3.407c-1.271-0.984-4.69-3.762-6.493-3.987c-1.804-0.22-1.778-0.546-1.509-1.822
		c0.271-1.272,0.186-1.492,1.314-1.48c1.131,0.011,2.027-0.736,2.299-2.114c0.271-1.382,0.408-2.558,3.277-2.217
		c2.867,0.342,3.982-0.72,4.367-2.633c0.381-1.914,1.287-4.04,2.635-3.922c1.35,0.116,1.811-0.735,2.627-2.433
		c0.814-1.696,1.059-2.445,3.389-2.852c2.33-0.41,2.031-1.167,1.104-2.662c-0.923-1.497-1.05-3.801,0.704-7.027
		c1.266-2.324,0.758-5.429-0.607-6.395c-1.361-0.97-3.607-3.543-3.227-4.711c0.377-1.17-1.109-2.887-1.954-0.228
		c-0.843,2.659-2.337,1.37-3.811,0.829c-1.476-0.542-2.687-0.06-2.856-0.804c-0.166-0.748-1.012-1.289-2.816-1.086
		c-1.808,0.201-4.535,0.074-6.107-1.853c-1.574-1.93-1.229-1.928-0.852-2.669c0.375-0.743,0.183-1.597-0.527-2.456
		c-0.707-0.858-0.854-2.244-0.854-2.244l2.279,0.655l0.223-0.852l2.354,0.23c0,0-2.271-2.574-2.113-3.639
		c0.161-1.062-0.521-3.093-0.521-3.093s1.895-2.826,4.762-2.913c2.875-0.089,6.48-0.065,7.391,0.794
		c0.909,0.859,1.469,0.863,2.498,0.23c1.024-0.632,1.846-0.308,3.188,0.021c1.347,0.329,2.342,0.975,2.518-2.22
		c0.173-3.192,0.646-14.485,0.646-14.485l1.322-2.335l-0.421-1.922l4.726-7.533c0,0,1.521-6.274,2.115-6.912
		c0.593-0.636,0.515-1.912,0.131-2.983c-0.383-1.067-1.521-6.506-1.031-7.465c0.482-0.956,0.729-2.018-0.422-2.239
		c-1.149-0.225-0.957-3.842,0.043-4.645c2.045-1.635,0.244-6.663,0.244-6.663s-7.996-0.325-7.391-2.812
		c0.605-2.488,0.033-3.072-0.966-3.101c-0.999-0.027-7.202-2.041-7.817-3.164c-0.617-1.124-2.551-0.928-2.416-2.87
		c0.134-1.942,0.174-2.63-0.541-3.114c-0.713-0.485-1.047-0.9-0.822-2.293c0.223-1.393,1.139-2.742-0.523-3.647
		c-1.736-0.947-2.355-1.003-2.984-0.02c-0.633,0.981-0.846,0.27-1.744-0.4c-0.9-0.666-2.572-0.982-4.319-0.372
		c-1.751,0.605-2.741,0.642-3.278,1.438c-0.536,0.801-2.371,1.197-3.275,1.262c-0.903,0.063-3.301,0.454-3.926,0.979
		c-0.629,0.523-3.119,0.913-4.02,0.888c-0.904-0.028-3.205-0.092-5.234,1.06c-2.03,1.156-5.777,1.591-6.396,0.467
		c-0.616-1.123-1.05-0.992-2.329-0.563c-1.281,0.427-2.201-0.346-3.734,0.512c-1.357,0.761-6.491-0.295-8.43,0.492
		c-1.934,0.789-4.641,1.779-5.449,1.569c-0.808-0.211-2.178,0.189-3.369,1.167c-1.188,0.978-11.673,5.431-13.604,5.945
		c-1.937,0.515-4.234,2.098-4.961,3.445c-0.723,1.346-2.404,2.218-4.035,3.45c-2.711,2.045-5.889,6.203-5.84,9.751
		c0.021,1.532-0.236,2.491-0.673,2.831c-0.437,0.341-0.692,1.07-0.675,2.831c0.021,1.992-0.242,3.223,0.723,3.574
		c0.96,0.35,0.609,1.398,0.822,2.476c0.21,1.078-0.339,3.954,0.151,4.851c0.491,0.897,0.696,2.771,0.166,2.836
		c-0.526,0.069-0.601,1.209-0.384,1.738c0.213,0.529,0.229,2.192-1.139,2.802c-1.377,0.61-2.148,2.134-0.309,3.501
		c2.762,2.054,2.568,2.235,3.441,1.763c0.872-0.473,2.484-0.053,3.723,0.943c1.24,0.988,4.25,1.786,4.945,0.122
		c0.699-1.664,1.189-1.068,2.159-1.267c0.966-0.197,2.206-0.053,2.421,0.477c0.215,0.526,0.619,0.667,1.582,0.467
		c0.967-0.198,1.836-0.146,2.144,0.565c0.306,0.709-0.69,1.115-1.125,0.907c-0.433-0.21-1.774,0.078-1.774,0.078
		s-4.275,6.035-4.242,6.103c0.029,0.071-0.537,9.786-0.537,9.786l4.162,5.336c0,0,9.111,0.271,9.516,0.249
		c0.408-0.02,8.793-2.867,8.793-2.867s0.918-1.801,2.064-1.268c1.146,0.532,1.92,1.409,0.359,2.014
		c-1.56,0.606-5.303,1.973-6.662,2.204c-3.155,0.535-3.496,1.955-3.449,2.12c0.576,1.993,0.98,2.042,1.477,2.571
		c0.49,0.529,1.613,4.793,0.037,7.595c-1.574,2.802-4.004,7.502-8.655,9.917c-4.655,2.413-6.593,3.458-7.597,4.615
		c-1.003,1.156-1.738,3.653-1.812,5.275c-0.074,1.62-0.985,2.673-3.099,2.815c-2.118,0.14-3.862,0.73-4.489,1.249
		c-0.623,0.52-1.996,1.386-3.072-0.204c-1.085-1.587-1.98-2.272-2.602-2.031c-0.623,0.247-2.175-0.903-2.602-1.847
		c-0.428-0.944-3.086-3.453-5.86-2.579c-2.774,0.87-3.766,0.18-4.562-1.223c-0.803-1.404-2.635-2.003-3.91-1.673
		c-1.277,0.331-2.553,0.101-3.727-0.94c-1.176-1.042-2.63-2.371-3.146-3.591c1.994,0.17,2.295,0.773,2.979,1.118
		c0.684,0.346,1.738,0.131,1.502-0.996c-0.243-1.124,0.26-2.168,1.604-2.641c1.339-0.476,2.802-2.078,2.444-2.913
		c-0.24-0.575-0.772-0.619-1.303-0.282c-0.528,0.333-1.426-0.81-1.014-1.838c0.412-1.028,0.078-2.263,1.143-2.828
		c1.06-0.568,1.479-2.529,0.401-3.933c-1.081-1.406-2.755-5.971-3.407-7.161c-0.607-1.128-0.194-2.813,0.682-3.196
		c0.875-0.387,2.866-1.147,4.752,0.672c1.886,1.817,2.946,1.509,3.451,0.663c0.504-0.845,1.186-1.065,1.871-1.175
		c0.689-0.113,3.156-1.97,3.014-3.182c-0.146-1.217-0.02-1.716,1.225-1.82c1.248-0.109,1.562-0.88,1.512-2.553
		c-0.051-1.671-0.472-3.823-1.654-3.764c-1.18,0.06-1.895-0.263-2.326-0.655c-0.432-0.394-1.715-0.08-2.434,0.807
		c-0.719,0.885-3.119,0.826-3.635-1.033c-0.514-1.858-1.494-4.377-0.699-6.228c0.791-1.848,0.356-2.351-0.35-3.844
		c-0.7-1.492-3.584-7.529-3.584-7.529s-4.225-0.92-5.234,0.881c-1.006,1.8-2.102,2.205-3,2.541c-0.904,0.336-1.815,1.109-4.477-0.58
		c-2.664-1.688-2.635-2.19-2.497-3.768c0.136-1.577-1.224-2.73-2.03-2.76c-0.811-0.029-2.367-0.269-2.356,2.82
		c0.01,3.089-2.268,12.362-3.376,15.442c-1.107,3.079-1.662,5.411-1.744,8.773c-0.084,3.358-2.372,15.636-3.125,19.375
		c-3.088,15.366-13.398,32.655-30.188,49.167c2.288,2.062,5.305,5.771,5.305,5.771l-0.84,0.811c0,0-3.327-3.158-4.182-4.371
		c-1.277-1.813-4.986-3.474-6.254-1.597c-1.367,2.024-0.524,1.719-0.146,2.128c0.378,0.408,0.445,1.317,0.236,1.97
		c-0.209,0.648-0.558,1.468,0.156,1.719c0.712,0.247,0.779,0.988,0.489,1.806c-0.292,0.813-0.508,1.2,0.312,2.705
		c1.613,2.956,4.953,6.613,7.424,6.543c2.47-0.065,2.623,0.43,2.832,1.251c0.209,0.814,0.025,1.471,2.158,2.062
		c2.131,0.583,2.204,0.418,2.496,1.157c0.293,0.735-0.561,1.389,2.245,1.244c2.806-0.149,4.37,1.668,5.743,2.904
		c1.377,1.236,1.778,1.733,3.579,1.744c1.798,0.008,2.704,0.427,3.753,1.09c1.041,0.659,4.119,0.851,6.184-0.614
		c2.064-1.46,3.267-1.372,3.267-1.372l0.456,1.396c0,0-1.934,0.318-3.146,1.539c-1.215,1.215-6.164,2.496-8.695,1.169
		c-2.535-1.333-5.057-0.854-5.021,0.946c0.035,1.798-2.572,2.686-3.694,2.921c-1.126,0.238-5.415,2.757-6.362,1.683
		s-1.712-0.664-2.251-0.423c-0.538,0.238-1.638,0.072-2.251-0.754c-0.613-0.827-1.705-1.564-2.418-0.346
		c-0.715,1.224-0.729,1.8,0.734,2.216c1.465,0.418,2.032,1.001,1.91,1.488c-0.121,0.486-1.473,0.731-2.506,0.068
		c-1.035-0.667-2.381-0.753-4.344-0.115c-1.961,0.64-3.561,1.207-3.519,1.78c0.041,0.572,0.609,1.397,1.661,1.32
		c1.051-0.077,1.117,0.421,1.164,0.992c0.041,0.568,0.275,1.149,0.825,1.071c0.55-0.081,0.614,0.578,0.661,1.15
		c0.041,0.571,0.109,1.147,1.995,0.996c1.889-0.153,2.712-0.062,3.423,0.597c0.709,0.657,1.535,1.17,2.5,1.176
		c0.967,0.002,2.459-0.478,3.08,1.243c0.621,1.723,1.878,5.755-0.373,5.321c-2.206-0.429-4.639-0.693-5.428-0.208
		c-0.792,0.481-2.229,0.643-3.756-0.599c-1.529-1.241-3.039-2.31-2.898-3.788c0.143-1.473-2.777-3.865-4.895-4.374
		c-2.121-0.508-2.963-1.409-4.167-1.093c-1.211,0.32-2.473,0.643-3.091,0.062c-0.62-0.579-1.799-0.337-2.424-0.1
		c-0.623,0.24-1.553,0.239-1.754-0.092c-0.199-0.333-1.213-0.335-2.342,0.638c-1.131,0.972-3.402,1.862-3.846,0.384
		c-0.441-1.479-1.447-3.038-1.98-3.453c-0.535-0.414-1.123-1.151-1.24-1.398c-0.119-0.251-0.125-0.819-1.58-1.157
		c-1.451-0.341-2.97-0.35-4.096,0.462c-1.129,0.808-3.903,2.103-4.949,2.501c-1.037,0.402-3.572,2.848-1.193,3.762
		c2.379,0.916,3.691,3.142,4.148,4.287c0.454,1.148,2.434,3.128,3.984,3.222c1.548,0.089,2.29,0.098,3.094-0.473
		c0.802-0.566,1.879-0.885,3.418,0.6c1.541,1.479,1.779,1.651,1.823,2.222c0.042,0.571,0.78,0.91,1.747,0.748
		c0.969-0.158,1.621,0.342,2.412,1.493c0.793,1.146,1.448,0.992,1.998,0.914c0.551-0.083,0.957-0.319,1.17,0.171
		c0.211,0.487,1.418,0.011,2.303-0.314c0.885-0.323,2.094-2.356,2.32-3.666c0.219-1.311,0.467-1.961,1.936-2.281
		c1.471-0.318,2.885-1.126,3.508,0.107c0.623,1.228,0.865,0.991,1.578,1.237c0.715,0.249,1.367,0.588,1.576,1.486
		c0.208,0.899,0.445,1.397,1.66,1.402c1.215,0.007,1.456,0.095,2.165,0.914c0.708,0.824,1.712,1.616,3.087,0.597
		c1.643-1.222,4.133-0.461,4.583,1.669C63.477,220.974,63.451,221.402,63.508,221.747z"/>
	<path fill="#FFFFFF" d="M9.83,219.746c-0.196,2.027-0.486,2.374-0.129,2.914c0.354,0.539,0.499,1.17-0.34,1.917
		c-0.842,0.744-1.024,1.48-0.338,1.914c0.682,0.439,0.715,1.067,0.638,1.815c-0.082,0.752,0.379,2.77,1.282,2.782
		c0.908,0.013,0.941,0.425,1.516,1.075c0.572,0.65,2.744,0.974,4.516,0.883c1.777-0.087,3.555-0.301,2.734-2.111
		c-0.821-1.814-0.672-2.354,1.318-2.441c1.994-0.087,2.188-0.63,4.824,0.566c2.637,1.193,5.275,2.055,6.284,2.174
		c1.018,0.117,3.771,0.338,3.243,3.004c-0.529,2.667,0.482,3.623,2.915,2.578c2.437-1.044,2.798-1.158,2.714,0.233
		c-0.08,1.389,2.902-0.095,4.794-1.351c1.894-1.264,3.024-2.228,4.036-1.787c1.011,0.438,2.572-0.2,4.355-1.357
		c1.785-1.152,6.634-5.075,8.537-8.362c-0.675-0.528-1.221-1.297-1.389-2.056c-0.195-0.903-0.957-1.235-1.917-0.668
		c-0.962,0.565-1.305,0.894-1.094,1.466c0.206,0.571-0.734,2.455-1.767,1.218c-1.025-1.24-2.623-1.902-3.574-2.073
		c-0.953-0.174-2.879-1.167-2.656-2.065c0.221-0.904-0.201-1.884-1.405-2.142c-1.202-0.255-2.384-0.585-2.349,1.378
		c0.031,1.962-0.731,1.962-1.521,2.035c-0.785,0.078-2.388,0.643-3.014,1.457c-0.629,0.811-3.155,2.029-4.852,0.703
		c-1.695-1.325-2.467-0.833-3.337-0.431c-0.874,0.4-2.72-0.179-3.247-1.173c-0.533-0.988-1.793-1.398-3.334-1.494
		c-1.538-0.095-4.713-1.092-5.414-2.248c-0.693-1.153-3.377-1.409-5.006-0.357c-1.633,1.049-2.477,1.049-3.435,1.041
		C13.047,218.777,11.797,219.097,9.83,219.746z"/>
	<path fill="#FFFFFF" d="M94.178,57.677c0.712-4.41,3.465-7.978,4.232-8.733c0.771-0.756,1.537-1.8,1.771-2.443
		c1.121-3.045,3.186-3.311,3.771-1.45c0.585,1.865,1.806,2.822,1.812,3.864c0.005,1.041-0.131,4.77-0.706,5.235
		c-0.575,0.464-1.356,0.916-1.435,1.463c-0.073,0.55-1.362,2.635-2.183,2.769c-0.823,0.137-1.443,1.081-1.852,1.708
		c-0.408,0.627-0.941,1.164-1.426,0.809c-0.484-0.354-0.516,0.266-0.588,0.733C97.498,62.099,95.49,63.21,95,62.939
		C94.517,62.665,93.789,60.089,94.178,57.677z"/>
	<path fill="#FFFFFF" d="M104.172,38.686c1.857-1.219,3.068-2.088,4.271-3.408c1.583-1.734,3.504-2.967,6.131-4.068
		c2.386-0.998,3.513,0.981,1.652,1.533c-1.867,0.551-4.387,1.541-5.593,2.423c-1.204,0.878-2.845,2.637-3.392,3.844
		c-0.545,1.207-1.75,1.648-3.285,1.872C102.42,41.102,101.323,40.556,104.172,38.686z"/>
	<path fill="#FFFFFF" d="M121.695,24.397c1.329-2.075,0.764-1.756,3.94-2.42c3.182-0.664,10.854-2.76,13.919-4.082
		c3.069-1.32,3.51-0.773,4.059-0.006s-0.107,0.987-1.642,1.429c-1.534,0.441-2.087,0.551-2.633,1.101
		c-0.545,0.549-1.201,1.428-2.737,1.321c-1.535-0.106-3.398,0.773-4.273,1.543c-0.873,0.769-2.847,1.32-4.932,1.543
		c-1.453,0.156-2.74,0.773-3.508,1.542c-0.765,0.769-1.42,1.538-2.629,0.772C120.052,26.374,120.706,25.935,121.695,24.397z"/>
	<path fill="#FFFFFF" d="M197.994,8.473c-1.564-2.334-0.229-3.289,1.969-1.649C202.16,8.465,199.094,10.115,197.994,8.473z"/>
	<path fill="#FFFFFF" d="M204.898,7.253c1.422-0.253,3.291,0.433,1.209,1.095C204.025,9.01,203.036,7.585,204.898,7.253z"/>
</g>
<g id="NL_grenslijn_1_">
	<path fill="none" stroke="#98AE6C" stroke-width="0.5669" d="M9.83,219.746c-0.196,2.027-0.486,2.374-0.129,2.914
		c0.354,0.539,0.499,1.17-0.34,1.917c-0.842,0.744-1.024,1.48-0.338,1.914c0.682,0.439,0.715,1.067,0.638,1.815
		c-0.082,0.752,0.379,2.77,1.282,2.782c0.908,0.013,0.941,0.425,1.516,1.075c0.572,0.65,2.744,0.974,4.516,0.883
		c1.777-0.087,3.555-0.301,2.734-2.111c-0.821-1.814-0.672-2.354,1.318-2.441c1.994-0.087,2.188-0.63,4.824,0.566
		c2.637,1.193,5.275,2.055,6.284,2.174c1.018,0.117,3.771,0.338,3.243,3.004c-0.529,2.667,0.482,3.623,2.915,2.578
		c2.437-1.044,2.798-1.158,2.714,0.233c-0.08,1.389,2.902-0.095,4.794-1.351c1.894-1.264,3.024-2.228,4.036-1.787
		c1.011,0.438,2.572-0.2,4.355-1.357c1.785-1.152,6.634-5.075,8.537-8.362"/>
	<path fill="none" stroke="#98AE6C" stroke-width="0.5669" d="M242.576,37.396c0,0,1.801,5.028-0.244,6.663
		c-1,0.802-1.192,4.419-0.043,4.645c1.151,0.222,0.904,1.284,0.422,2.239c-0.49,0.959,0.648,6.398,1.031,7.465
		c0.384,1.071,0.462,2.348-0.131,2.983c-0.594,0.638-2.115,6.912-2.115,6.912l-4.726,7.533l0.421,1.922l-1.322,2.335
		c0,0-0.474,11.292-0.646,14.485c-0.176,3.195-1.171,2.549-2.518,2.22c-1.342-0.33-2.163-0.653-3.188-0.021
		c-1.029,0.633-1.589,0.628-2.498-0.23c-0.91-0.859-4.516-0.884-7.391-0.794c-2.867,0.086-4.762,2.913-4.762,2.913
		s0.682,2.03,0.521,3.093c-0.157,1.064,2.113,3.639,2.113,3.639l-2.354-0.23l-0.223,0.852l-2.279-0.655c0,0,0.146,1.386,0.854,2.244
		c0.71,0.858,0.902,1.712,0.527,2.456c-0.377,0.741-0.723,0.739,0.852,2.669c1.572,1.927,4.3,2.054,6.107,1.853
		c1.805-0.203,2.65,0.338,2.816,1.086c0.17,0.744,1.381,0.262,2.856,0.804c1.474,0.541,2.968,1.83,3.811-0.829
		c0.845-2.659,2.331-0.942,1.954,0.228c-0.381,1.168,1.865,3.742,3.227,4.711c1.365,0.966,1.873,4.071,0.607,6.395
		c-1.754,3.226-1.627,5.53-0.704,7.027c0.927,1.496,1.226,2.252-1.104,2.662c-2.33,0.407-2.574,1.156-3.389,2.852
		c-0.816,1.698-1.277,2.549-2.627,2.433c-1.348-0.118-2.254,2.008-2.635,3.922c-0.385,1.914-1.5,2.976-4.367,2.633
		c-2.869-0.341-3.006,0.835-3.277,2.217c-0.271,1.378-1.168,2.125-2.299,2.114c-1.129-0.012-1.043,0.208-1.314,1.48
		c-0.27,1.276-0.295,1.602,1.509,1.822c1.803,0.225,5.222,3.002,6.493,3.987c1.663,1.297,0.238,3.312-0.568,3.407
		c-0.802,0.098-0.833,0.851-0.88,1.806c-0.051,0.956-2.899,3.658-3.597,4.288c-0.7,0.632-1.936,0.155-2.734-0.813
		c-0.797-0.968-1.909-0.221-3.809,0.825c-1.896,1.05-3.558,2.006-5.121,1.777c-1.561-0.225-2.794,1.266-3.385,1.894
		c-0.588,0.636-0.51,1.598-3.261,0.191c-2.749-1.405-3.317-1.509-2.075,1.584c1.238,3.097-1.062,2.343-1.969,1.587
		c-0.907-0.755-1.688-1.394-2.596-1.296c-0.913,0.095-1.94-3.496-4.381-2.346c-2.445,1.15-4.797-0.802-4.941-1.873
		c-0.143-1.071,0.271-1.699-3.033-1.408c-3.302,0.292-0.947,1.383-0.012,1.707c0.935,0.322,2.045,1.587,2.32,2.972
		c0.275,1.382-0.314,2.742-2.734,1.124c-2.424-1.619-2.68-0.693-3.596,0.041c-0.916,0.736-1.233,2.907-2.904,2.464
		c-1.666-0.443-3.576,0.018-1.891,2.051c1.683,2.033,1.971,3.535-0.144,5.004c-2.118,1.477,1.552,1.615,3.351,2.582
		c1.799,0.968,1.044,2.252,0.666,3.629c-0.377,1.382,0.096,2.132,2.766,2.47c2.675,0.335,3.185,1.408,1.392,3.207
		c-1.794,1.793,0.921,3.062,1.634,4.02c0.712,0.96,3.064,2.902,3.018,3.644c-0.047,0.742,0.247,1.179,1.616,2.355
		c1.36,1.178,1.958,5.027,1.362,6.614c-0.594,1.591-0.844,2.454-0.041,5.966c0.801,3.516,0.771,4.381-1.783,6.064
		c-1.406,0.927-2.65,2.23-3.033,4.141c-0.381,1.912-1.984,3.608-3.334,4.661c-1.353,1.049-0.753,4.583-0.371,6.601
		c0.377,2.023,2.865-0.078,3.918-1.038c1.053-0.957,1.566-0.299,1.955,0.228c0.391,0.529,0.252,0.965-0.553,1.276
		c-0.805,0.304-1.16,0.531,0.098,1.49c1.256,0.96-1.059,1.745-3.276,2.256c-2.218,0.509-2.688,1.76-3.278,2.603
		c-0.593,0.842-1.604,1.701-3.389,2.318c-1.783,0.623-2.586,2.764-2.635,4.031c-0.051,1.275-2.583,2.017-2.932-0.335
		c-0.353-2.354-0.607-0.853-1.738-0.44s-1.055,1.17-0.885,2.02c0.17,0.843,0.141,1.287,1.074,2.032
		c0.932,0.743,1.014,0.765,0.424,1.71c-0.595,0.948,0.681,1.717,1.296,0.969c0.617-0.75,1.894-0.836,2.067-0.202
		c0.17,0.636,0.686,0.545,2.172-0.09c2.708-1.161,2.318,0.769,1.732,1.291c-0.59,0.521-0.408,1.604-0.235,2.343
		c0.171,0.74,0.464,1.711,2.704,1.936c2.239,0.221,2.096,1.408,1.289,2.035c-0.809,0.626-0.732,1.92,0.09,2.771
		c0.821,0.85,0.025,1.816-2.302,2.222c-2.323,0.401-2.038,2.229-1.651,3.397c0.385,1.168-0.263,2.461-0.951,1.918
		c-0.691-0.541-0.972-0.965-1.67-0.229c-0.699,0.735,0.25,1.286,1.51,1.927c1.256,0.643,1.873,1.406,1.178,2.248
		c-0.699,0.839-1.38,0.953-2.72,0.406c-1.344-0.547-2.458-0.222-3.588,0.084c-1.132,0.304-1.485,0.42-2.173-0.229
		c-0.689-0.651-0.605-0.639-1.739-0.119c-1.132,0.517-3.872,0.299-4.558-0.883c-0.686-1.184-1.687-1.494-2.068,0.195
		c-0.377,1.699-3.228,1.053-4.24,0.934c0.173-0.799,0.146-1.413,0.178-1.644c0.079-0.579,0.157-1.239,0.389-2.188
		c0.072-0.967-0.27-1.914-1.176-2.355c-0.911-0.437-1.252-1.811-1.609-3.1c-0.359-1.287,0.383-2.12,1.209-2.338
		c0.833-0.211,1.461-0.725,1.424-1.48c-0.035-0.752,0.27-1.057,0.883-1.485s1.211-0.148,1.834-1.324
		c0.104-0.61,0.264-1.18,0.5-1.589c0.656-1.125,0.542-1.98-0.648-2.463c-1.188-0.48-0.631-2.312,0.691-3.269
		c1.322-0.958,1.547-2.864,1.365-4.161c-0.176-1.299,0.539-1.98,1.521-1.793c0.977,0.188,1.357-0.662,0.844-1.795
		s0.033-1.328,0.68-1.469c0.648-0.143,0.861-0.829,0.181-1.803c-0.509-0.718,1.169-2.297,2.433-3.078
		c-0.897-1.712-2.008-2.351-2.926-1.511c-0.914,0.839-2.023,0.525-2.275-0.87c-0.248-1.391-3.754-0.871-4.99-0.882
		c-1.234-0.017-1.701,0.097-2.383-1.191c-0.684-1.288-3.641-2.364-4.98-2.591c-1.344-0.227-1.359-0.761-1.068-2.778
		c0.383-2.655-0.264-3.299-3.223-5.03c-1.459-0.849-3.559,1.259-4.363,2.208c-0.811,0.949-1.82,1.485-3.373,0.296
		c-1.553-1.186-2.152-2.065-2.416-1.006c-0.266,1.059-2.89,1.263-4.359,1.249c-3.454-0.031-2.447-1.185-2.151-2.678
		c0.296-1.497-0.489-2.235-1.178-2.78c-0.687-0.54-0.825-0.747-3.049,0.727c-2.222,1.473-2.563-0.866-2.591-2.468
		c-0.027-1.605,0.84-1.025-1.461-3.39c-2.305-2.366-1.467-2.458-0.736-3.416s0.486-2.016,0.131-3.407
		c-0.355-1.393-1.031-2.241-1.834-2.039c-0.801,0.201-0.936-0.215-1.297-1.074c-0.354-0.86-0.82-1.066-1.734-0.226
		c-0.914,0.841-0.842,1.275-0.557,1.806c0.283,0.532-0.076,1.183-0.881,1.595c-0.805,0.412-1.707,1.486-2.407,2.753
		c-0.7,1.27-2.696,2.117-3.159,0.619c-0.46-1.5-4.31-0.555-5.871-0.147c-1.559,0.412-2.242-0.01-2.381-0.974
		c-0.141-0.966,0.264-1.488,1.312-1.271c1.047,0.217,1.773,0.123,1.852-0.733c0.078-0.857-0.061-1.169,0.772-1.593
		c0.836-0.428,1.248-1.797-1.497-3.635c-2.742-1.834-3.656-0.445-4.352,0.717c-0.695,1.162-1.607,2.017-2.516,2.437
		c-0.912,0.411-1.597,0.419-1.756,2.009c-0.154,1.593-2.467,0.951-4.24,0.717c-1.777-0.228-2.133-0.858-3.373,0.193
		c-1.24,1.049-1.145-1.922-0.527-2.352c0.619-0.425,0.697-1.056,0.34-1.808c-0.361-0.752-1.261-0.855-2.168-0.546
		c-0.911,0.305-4.428,1.041-5.987,1.341c-1.562,0.306-1.601,0.848-1.32,1.484c0.286,0.636-0.077,0.752-0.226,1.597
		c-0.152,0.85,0.666,3.313,1.598,4.275c0.936,0.958,0.789,1.823-0.34,2.338c-1.127,0.52-3.441,0.09-3.912-0.449
		c-0.467-0.544-1.039-1.067-2.273-0.977c-0.582,0.043-1.613,0.134-2.531,0.218l-2.118,0.214"/>
</g>
<g id="NL_rivier_binnenland">
	<path fill="none" stroke="#B8DBFF" stroke-width="1.1339" stroke-miterlimit="3.8636" d="M69.219,170.333
		c0.684,2.537,2.512,5.59,4.809,5.109c2.289-0.482,2.721-0.22,3.168,0.349c0.449,0.57,2.051,0.76,3.754,0.682
		c1.705-0.077,3.137,0.437,3.83,1.417c0.699,0.981,3.889,3.58,6.381-0.997"/>
	<path fill="none" stroke="#B8DBFF" stroke-width="1.1339" stroke-miterlimit="3.8636" d="M86.255,170.449
		c1.702,0.499,2.788,2.564,3.146,3.625c0.362,1.063,1.282,2.963,3.401,3.381c2.119,0.418,5.223,0.615,5.932,0.284
		c0.701-0.328,3.294-0.071,4.242,0.91"/>
	<path fill="none" stroke="#B8DBFF" stroke-width="1.1339" stroke-miterlimit="3.8636" d="M90.355,187.498
		c2.291-0.728,3.611-2.333,4.579-4.46c0.97-2.127,2.75-3.416,4.03-3.167c1.287,0.248,3.479-0.625,4.271-1.28
		c0.789-0.655,4.324-1.604,6.354-0.777c2.031,0.826,3.217,0.601,4.34,0.194c1.124-0.407,2.641-0.303,3.928,0.269
		c1.281,0.579,6.225,0.625,8.35,0.144c2.125-0.485,3.559-0.379,4.509,0.272c0.946,0.658,3.05,1.011,4.438-1.768
		c1.391-2.781,2.6-5.955,5.969-6.1c3.379-0.149,7.649-0.682,8.931-0.435c1.288,0.247,6.146,0.622,7.922,2.426
		c1.776,1.808,7.049,2.228,7.927,1.082c0.876-1.146,1.982-1.536,2.678-0.799c0.698,0.735,1.799,0.839,2.754,0.266
		c0.959-0.574,3.236-1.527,3.928-0.466"/>
	<path fill="none" stroke="#B8DBFF" stroke-width="1.1339" stroke-miterlimit="3.8636" d="M169.224,165.033
		c-0.546-0.913-0.603-2.293,1.022-2.531c1.619-0.243,2.479-1.289,3.27-2.108c0.792-0.82,1.818-2.027,2.844-0.88
		c1.031,1.147,1.72,0.755,2.425,0.263c0.702-0.495,0.645-1.708,0.267-2.372c-0.379-0.667-0.436-2.292,1.195-3.598
		c1.631-1.302,2.152-2.189,3.105-2.269c0.952-0.082,1.314-1.624,0.684-1.962c-0.635-0.337-1.172-4.26-0.635-5.082
		c0.545-0.821,0.229-1.548-0.485-1.886c-0.716-0.34-1.526-1.724-0.399-2.212c1.12-0.493,0.487-3.023-2.631-6.161
		c-3.119-3.139-2.666-5.579-2.376-6.65c0.29-1.069,0.229-1.876-0.319-2.13c-0.548-0.255-1.363-0.659,0.434-1.719
		c1.792-1.056,2.5-4.234,1.618-5.065c-0.876-0.829-1.271-1.804-0.983-2.463c0.291-0.658-0.02-1.713-1.066-2.545
		c-1.047-0.832-4.271-3.382-4.396-4.123c-0.129-0.744-0.93-1.959-1.83-0.915c-0.558,0.647-1.71,0.485-2.169-0.425
		c-0.466-0.909-3.636-5.672-7.272-5.949"/>
	<polyline fill="none" stroke="#B8DBFF" stroke-width="1.1339" stroke-miterlimit="3.8636" points="85.496,113.798 89.505,113.989 
		92.99,117.042 102.744,119.73 104.812,122.117 109.166,123.516 	"/>
	<path fill="none" stroke="#B8DBFF" stroke-width="1.1339" stroke-miterlimit="3.8636" d="M60.634,166.186
		c1.225,1.383,7.729,4.502,9.722,4.004c1.988-0.497,3.111-0.776,4.178-0.464c1.064,0.315,3.443-0.037,4.18-0.379
		c0.737-0.343,2.699-0.948,3.259-0.307c0.562,0.641,1.601,0.769,2.253,0.752c0.65-0.014,1.576,0.417,2.164,0.752
		c1.562,0.891,7.201-0.098,10.875-2.302c3.676-2.205,4.711-2.404,6.283-2.166c1.563,0.237,2.775-0.702,3.347-1.126
		c0.567-0.423,1.614-1.036,2.095-0.885c0.483,0.148,0.936-0.222,1.422-0.728c0.49-0.507,1.53-0.953,2.18-0.721
		c0.647,0.229,1.854-0.296,2.596-1.214c0.742-0.914,3.291-2.085,4.758,0.69s3.086,3.069,4.329,1.913
		c1.245-1.157,2.282-1.277,3.261-0.305c0.98,0.97,3.103,1.104,4.425,0.277c1.325-0.83,2.19-0.704,2.755-0.312
		c0.57,0.395,1.518,0.604,2.76-0.635c1.248-1.237,3.038-1.841,6.008,0.78c2.973,2.621,4.008,1.843,7.508,0.455
		c3.5-1.384,4.842-1.11,5.602-0.861c1.732,0.566,4.191-0.035,5.516-0.537c1.322-0.5,3.113-0.857,3.76,0.107
		c0.643,0.97,1.427,1.338,1.994,1.325c0.566-0.014,1.768,0.769,1.658,1.976c-0.109,1.21,0.586,1.99,1.569,2.305
		c0.981,0.315,3.094,1.642,3.239,2.36c0.143,0.72,4.971,4.069,7.3,4.422c1.126,0.168,1.475,0.175,1.81,0.256"/>
	<path fill="none" stroke="#B8DBFF" stroke-width="1.1339" stroke-miterlimit="3.8636" d="M90.797,187.966
		c2.37-0.985,4.854-1.538,6.537-0.399c1.688,1.142,3.812,1.515,6.012,0.695c2.199-0.819,4.328-0.934,6.015-0.122
		c1.687,0.813,4.984,0.705,7.86-0.926c2.871-1.637,5.668-1.584,8.025-0.932c2.354,0.656,8.168-1.073,8.879-3.707
		c0.707-2.632,2.344-3.896,3.695-3.086c1.35,0.813,2.314,0.197,2.843-0.797c0.53-0.999,1.328-1.615,2.175-0.478
		c0.85,1.135,1.647,0.432,2.344-0.401c0.695-0.825,3.564-0.287,5.242,1.507c1.68,1.798,1.968,2.323,3.156,2.479
		c1.191,0.154,1.143,0.514,1.993,1.321c0.851,0.812,1.967,2.25,4.836,1.431c2.864-0.813,3.653,0.208,4.165,1.505
		c0.514,1.297,1.139,1.826,2.494,1.816c1.361-0.004,2.641,1.836,2.484,2.967c-0.151,1.129,0.374,3.458,2.057,4.599
		c1.684,1.142,1.963,2.65,2.307,4.275c0.345,1.624,0.874,3.134,3.059,4.279c2.187,1.14,7.797,6.989,6.628,10.241
		c-1.173,3.251-1.556,3.773-1.04,5.067c0.513,1.298,0.52,3.413-0.852,5.223c-1.697,2.24-4.422,5.081-5.406,5.549
		c-0.984,0.466-3.629,3.637-3.187,5.038c0.487,1.56-0.89,4.269-2.376,5.06c-1.487,0.792-2.725,1.328-3.215,2.291
		c-0.484,0.962-1.365,1.316-2.18,1.621c-0.816,0.304-4.471,2.69-3.789,3.662c0.684,0.969,0.467,1.659-0.178,1.801
		c-0.65,0.143-1.195,0.335-0.683,1.469c0.517,1.135,0.134,1.982-0.843,1.795c-0.982-0.188-1.698,0.495-1.521,1.795
		c0.182,1.289-0.043,3.199-1.364,4.158s-1.88,2.789-0.691,3.272c1.188,0.48,1.294,1.966,0.587,3.265
		c-0.598,1.099-2.828,5.426-2.352,8.368c0.479,2.94,0.55,3.949-0.336,5.472c-0.83,1.428-0.877,3.17-0.962,4.35"/>
</g>
<g id="NL_dammen_M">
	
		<polyline fill="none" stroke="#FFFFFF" stroke-width="1.4173" stroke-linecap="square" stroke-linejoin="round" stroke-miterlimit="3.8636" points="
		114.029,68.316 129.156,55.319 131.832,54.927 133.941,52.646 	"/>
	
		<polyline fill="none" stroke="#FFFFFF" stroke-width="1.4173" stroke-linecap="square" stroke-linejoin="round" stroke-miterlimit="3.8636" points="
		31.408,198.602 31.252,196.968 33.271,194.525 33.12,192.49 	"/>
	
		<polyline fill="none" stroke="#FFFFFF" stroke-width="1.4173" stroke-linecap="square" stroke-linejoin="round" stroke-miterlimit="3.8636" points="
		39.606,184.572 40.209,182.611 42.383,181.886 42.811,180.662 	"/>
	
		<polyline fill="none" stroke="#FFFFFF" stroke-width="1.4173" stroke-linecap="square" stroke-linejoin="round" stroke-miterlimit="3.8636" points="
		55.669,193.039 59.514,192.411 60.27,191.516 	"/>
	
		<line fill="none" stroke="#FFFFFF" stroke-width="1.4173" stroke-linecap="square" stroke-linejoin="round" stroke-miterlimit="3.8636" x1="59.346" y1="192.409" x2="62.16" y2="196.277"/>
	
		<line fill="none" stroke="#FFFFFF" stroke-width="1.4173" stroke-linecap="square" stroke-linejoin="round" stroke-miterlimit="3.8636" x1="51.186" y1="177.087" x2="53.768" y2="174.239"/>
	
		<line fill="none" stroke="#FFFFFF" stroke-width="1.4173" stroke-linecap="square" stroke-linejoin="round" stroke-miterlimit="3.8636" x1="40.984" y1="199.925" x2="46.227" y2="194.793"/>
	
		<line fill="none" stroke="#FFFFFF" stroke-width="1.4173" stroke-linecap="square" stroke-linejoin="round" stroke-miterlimit="3.8636" x1="41.012" y1="203.283" x2="41.246" y2="204.859"/>
	
		<line fill="none" stroke="#FFFFFF" stroke-width="1.4173" stroke-linecap="square" stroke-linejoin="round" stroke-miterlimit="3.8636" x1="29.697" y1="201.632" x2="28.463" y2="202.346"/>
	
		<polyline fill="none" stroke="#FFFFFF" stroke-width="1.4173" stroke-linecap="square" stroke-linejoin="round" stroke-miterlimit="3.8636" points="
		128.305,92.407 132.811,93.336 138.184,100.825 138.414,103.366 136.254,106.518 137.521,108.027 	"/>
	
		<polyline fill="none" stroke="#FFFFFF" stroke-width="1.4173" stroke-linecap="square" stroke-linejoin="round" stroke-miterlimit="3.8636" points="
		71.477,190.194 74.822,189.155 75.42,187.602 	"/>
	
		<line fill="none" stroke="#FFFFFF" stroke-width="1.4173" stroke-linecap="square" stroke-linejoin="round" stroke-miterlimit="3.8636" x1="74.822" y1="189.155" x2="75.731" y2="190.552"/>
	
		<line fill="none" stroke="#FFFFFF" stroke-width="1.4173" stroke-linecap="square" stroke-linejoin="round" stroke-miterlimit="3.8636" x1="115.986" y1="130.702" x2="121.229" y2="125.572"/>
	
		<line fill="none" stroke="#FFFFFF" stroke-width="1.4173" stroke-linecap="square" stroke-linejoin="round" stroke-miterlimit="3.8636" x1="147.465" y1="103.78" x2="152.709" y2="98.647"/>
	
		<line fill="none" stroke="#FFFFFF" stroke-width="1.4173" stroke-linecap="square" stroke-linejoin="round" stroke-miterlimit="3.8636" x1="133.391" y1="130.302" x2="128.737" y2="134.423"/>
	
		<line fill="none" stroke="#FFFFFF" stroke-width="1.4173" stroke-linecap="square" stroke-linejoin="round" stroke-miterlimit="3.8636" x1="139.15" y1="132.759" x2="140.803" y2="137.693"/>
	
		<line fill="none" stroke="#FFFFFF" stroke-width="1.4173" stroke-linecap="square" stroke-linejoin="round" stroke-miterlimit="3.8636" x1="146.537" y1="123.151" x2="149.834" y2="126.984"/>
	
		<line fill="none" stroke="#FFFFFF" stroke-width="1.4173" stroke-linecap="square" stroke-linejoin="round" stroke-miterlimit="3.8636" x1="158.857" y1="114.082" x2="162.701" y2="116.543"/>
	
		<line fill="none" stroke="#FFFFFF" stroke-width="1.4173" stroke-linecap="square" stroke-linejoin="round" stroke-miterlimit="3.8636" x1="161.314" y1="108.593" x2="164.88" y2="108.04"/>
</g>
<g id="_x3D__x3D__x3D__x3D__x3D__x3D__x3D__x3D__x3D__x3D_">
</g>
<g id="LAW_1">
	<g>
		<path fill="#8EA265" d="M62.535,245.788h2.939l-2.624,12.346h5.753l-0.504,2.31h-8.672L62.535,245.788z"/>
		<path fill="#8EA265" d="M78.494,245.788h3.255l2.667,14.655h-2.939l-0.504-3.359h-6.236l-1.869,3.359h-3.254L78.494,245.788z
			 M76.038,254.774h4.535l-0.924-6.383h-0.084L76.038,254.774z"/>
		<path fill="#8EA265" d="M85.951,245.788h2.939l0.44,11.233h0.042l4.871-11.233h3.947l0.062,11.233h0.043l5.186-11.233h3.045
			l-6.992,14.655h-3.674l-0.147-11.716h-0.042l-5.165,11.716h-3.632L85.951,245.788z"/>
		<path fill="#8EA265" d="M113.146,249l4.913-3.212h2.666l-3.17,14.655h-2.939l2.498-11.316l-2.688,1.868L113.146,249z"/>
	</g>
	<g>
		<path fill="#8EA265" d="M188.117,51.215l3.277-2.143h1.779l-2.115,9.777h-1.961l1.667-7.55l-1.793,1.247L188.117,51.215z"/>
		<path fill="#8EA265" d="M195.312,54.311h3.685l-0.322,1.541h-3.685L195.312,54.311z"/>
		<path fill="#8EA265" d="M201.347,51.215l3.277-2.143h1.779l-2.115,9.777h-1.961l1.667-7.55l-1.793,1.247L201.347,51.215z"/>
	</g>
	<g>
		<path fill="#8EA265" d="M152.977,126.434l3.277-2.143h1.779l-2.115,9.777h-1.961l1.666-7.55l-1.793,1.247L152.977,126.434z"/>
		<path fill="#8EA265" d="M160.172,129.529h3.684l-0.322,1.541h-3.684L160.172,129.529z"/>
		<path fill="#8EA265" d="M170.771,134.068h-6.43l0.309-1.611c1.75-1.611,5.268-3.824,5.268-5.421c0-0.882-0.658-1.373-1.471-1.373
			s-1.598,0.378-2.256,0.84l-0.043-1.751c0.842-0.322,1.725-0.63,2.635-0.63c1.68,0,3.18,0.798,3.18,2.647
			c0,2.381-3.041,4.468-4.707,5.729v0.028h3.811L170.771,134.068z"/>
	</g>
	<g>
		<path fill="#8EA265" d="M75.664,155.059l3.277-2.143h1.779l-2.115,9.777h-1.961l1.666-7.55l-1.793,1.247L75.664,155.059z"/>
		<path fill="#8EA265" d="M82.859,158.154h3.684l-0.322,1.541h-3.684L82.859,158.154z"/>
		<path fill="#8EA265" d="M87.605,160.802c0.826,0.392,1.471,0.519,2.367,0.519c0.938,0,2.102-0.435,2.102-1.611
			c0-1.303-1.793-1.303-2.746-1.303l0.266-1.541c1.191,0,3.139,0,3.139-1.597c0-0.729-0.688-0.98-1.486-0.98
			c-0.797,0-1.555,0.238-2.143,0.518l0.197-1.639c0.783-0.238,1.623-0.42,2.451-0.42c1.498,0,3.025,0.658,3.025,2.339
			c0,1.429-0.994,2.199-2.297,2.479v0.042c1.008,0.364,1.639,0.925,1.639,2.045c0,2.227-1.977,3.208-3.992,3.208
			c-0.967,0-1.99-0.14-2.873-0.56L87.605,160.802z"/>
	</g>
	<path fill="none" stroke="#E30613" stroke-width="1.9842" stroke-linejoin="bevel" d="M179.625,23.012
		c2.006,4.166-0.319,6.819-3.329,6.847c-3.146,0.029-4.239,1.676-4.659,5.681c-0.528,5.022,2.768,8.062,7.193,10.999
		c4.009,2.665,3.348,5.835,0.014,7.509c-3.335,1.676-3.694,4.121-0.325,5.506c4.844,1.994,6.368,14.842,2.03,16.184
		c-4.334,1.343-4.17,3.165-2.498,5.166"/>
	<path fill="none" stroke="#E30613" stroke-width="1.9842" stroke-linejoin="bevel" d="M179.33,83.207
		c1.608,2.008,1.263,3.357-0.659,3.716c-1.952,0.365-4.523,1.205-6.183,3.646c-2.442,3.592-6.057,3.907-8.01,2.832
		c-1.952-1.074-5.761-0.098-6.445,2.93c-0.453,2.011-1.661,2.929-2.831,2.929c-1.854,0-2.793-0.683-4.356,1.173
		c-1.012,1.199-2.275,3.453-6.215,5.067c-7.886,3.233-8.73,7.371-6.42,11.632c8.202,15.135,0.684,18.064-3.516,14.452
		c-4.2-3.612-10.197-8.466-13.632-5.04c-1.389,1.385-4.757,1.322-5.868,0.728"/>
	<path fill="none" stroke="#E30613" stroke-width="1.9842" stroke-linejoin="bevel" d="M105.852,123.412
		c0.812,3.859,3.949,6.605,7.504,7.215c9.662,1.656,5.688,7.322,1.955,8.208c-7.27,1.724-9.6,5.676-9.846,13.451
		c-0.128,4.121,0.178,5.312-2.676,6.433c-2.521,0.992-1.63,2.426-0.556,5.099c1.67,4.167-3.354,5.855-6.863,6.74
		c-3.142,0.791-4.949,2.318-1.385,4.503c3.569,2.188,1.942,11.237-1.63,9.052c-3.562-2.186-4.932-0.538-4.931,1.379
		c0.005,1.92-3.497,3.458-6.576,1.931c-5.632-2.793-8.171-0.119-4.304,4.515c1.871,2.239-2.77,3.957-7.447,4.693
		c-2.188,0.345-5.504,0.164-0.727,3.512c0.992,0.692,2.293,2.813,0.65,3.803c-1.645,0.99,0.098,3.565,1.709,6.3"/>
	<g>
	</g>
</g>
</svg>
